<?xml version="1.0" encoding="utf-8"?>
<!-- Generator: Adobe Illustrator 22.1.0, SVG Export Plug-In . SVG Version: 6.00 Build 0)  -->
<svg version="1.1" id="Layer_1" xmlns="http://www.w3.org/2000/svg" xmlns:xlink="http://www.w3.org/1999/xlink" x="0px" y="0px"
	 viewBox="0 0 214.1 102.8" style="enable-background:new 0 0 214.1 102.8;" xml:space="preserve">
<style type="text/css">
	.st0{fill:#FFFFFF;}
</style>
<rect x="0" y="-0.1" class="st0" width="213.9" height="102.8"/>
<g>
	<path d="M38.5,33.5H8.8v-2.7c0-2.7,0.1-8,12.8-10.7c1.1-0.2,2.4-0.5,3.3-0.7c2.5-0.5,2.8-0.8,2.8-1.4v0c0-0.7-0.6-1.2-4-1.2
		c-4.5,0-4.6,1.9-4.7,2.7h-10v-0.2c0-3,1.1-8.1,13.7-8.1h1.3c11.9,0,14.1,3.1,14.1,6.9v0.2c0,3.9-2.9,5.4-11.6,6.7
		c-1.1,0.1-2.4,0.4-3.3,0.5c-4.9,0.8-6,1.5-6,2.2h12.3v-2.3h8.8V33.5z"/>
	<path d="M55.5,34H54c-13.2,0-14.7-5.5-14.7-8.3v-0.3h10.1c0.1,0.5,0.3,2.7,5.2,2.7c4.7,0,5.3-0.9,5.3-1.8v0c0-0.8-0.6-1.3-2.3-1.3
		h-6.9v-5.4h6.8c1.6,0,2.1-0.5,2.1-1.1v0c0-0.7-0.3-1.4-5.1-1.4c-4.9,0-5,1.7-5.1,2.1h-10v-0.3c0-2.4,1.3-7.5,14.4-7.5h1.3
		c13.5,0,14.7,3.2,14.7,5.7V17c0,2.1-2.1,3.4-4.3,3.7c2.5,0.4,5.2,1.9,5.2,5.4v0.2C70.8,29.7,68.6,34,55.5,34z"/>
	<path d="M98.1,21.3v4.5H71.8v-4.5H98.1z"/>
	<path d="M128.6,33.5H98.9v-2.7c0-2.7,0.1-8,12.8-10.7c1.1-0.2,2.4-0.5,3.3-0.7c2.5-0.5,2.8-0.8,2.8-1.4v0c0-0.7-0.6-1.2-4-1.2
		c-4.5,0-4.6,1.9-4.7,2.7h-10v-0.2c0-3,1.1-8.1,13.7-8.1h1.3c11.9,0,14.1,3.1,14.1,6.9v0.2c0,3.9-2.9,5.4-11.6,6.7
		c-1.1,0.1-2.4,0.4-3.3,0.5c-4.9,0.8-6,1.5-6,2.2h12.3v-2.3h8.8V33.5z"/>
	<path d="M145.1,34h-1.4c-13.5,0-14-5.2-14-7.3v-0.2h10.2c0.1,0.3,0.5,1.7,4.5,1.7c3.4,0,4.2-1.1,4.2-2.3v-0.1
		c0-1.1-0.8-2.2-4.2-2.2c-4,0-4.4,1.5-4.5,1.7H130V11.6h27.3v5.6H140v3.2c0.5-0.4,2.7-1.9,7.7-1.9h0.3c9,0,11,3.3,11,7.2v0.2
		C158.9,29.6,156.8,34,145.1,34z"/>
	<path d="M164.6,35.9h-6.9l9.3-26.4h7L164.6,35.9z"/>
	<path d="M172.9,21.3v-5c4-0.2,6.3-1.9,7.4-4.6h8v21.9h-9.9V21.3H172.9z"/>
	<path d="M189.8,21.3v-5c4-0.2,6.3-1.9,7.4-4.6h8v21.9h-9.9V21.3H189.8z"/>
	<path d="M20.6,57.5c0,3.9-1.8,6-5.5,6h-0.6c-3.8,0-5.5-2.1-5.5-6V46.9c0-3.7,1.7-5.9,5.5-5.9h0.6c3.9,0,5.5,2.2,5.5,5.9V57.5z
		 M16.7,46.9c0-1.8-0.7-2.5-1.9-2.5c-1.2,0-1.8,0.7-1.8,2.5v10.6c0,1.7,0.6,2.5,1.9,2.5c1.2,0,1.8-0.8,1.8-2.5V46.9z"/>
	<path d="M30.2,44.7v18.4h-3.9V44.7h-3.6v-3.5h11v3.5H30.2z"/>
	<path d="M40.2,52.7v10.5h-3.9V41.3h3.9V51l3.9-9.8H48l-4.2,10.2l4.6,11.7h-4L40.2,52.7z"/>
	<path d="M54.2,54.3v8.8h-3.9V41.3h6.3c3.2,0,4.7,1.2,4.7,4.7v3.6c0,3.3-1.7,4.8-4.7,4.8H54.2z M54.2,51.1h1.4
		c1.4,0,1.8-0.5,1.8-2.3v-2.1c0-1.8-0.5-2.3-1.8-2.3h-1.4V51.1z"/>
	<path d="M68,49.7h2.6c3.4,0,4.6,2,4.6,4.7v4.1c0,2.6-1.3,4.7-4.6,4.7H64V41.3H68V49.7z M69.5,60c1.2,0,1.7-0.6,1.7-2.1v-2.8
		c0-1.5-0.4-2.2-1.7-2.2H68V60H69.5z M80.8,63.2h-3.9V41.3h3.9V63.2z"/>
	<path d="M90.8,44.7v18.4h-3.9V44.7h-3.6v-3.5h11v3.5H90.8z"/>
	<path d="M104.9,48.5c-0.4,1.4-0.8,3.2-1.6,5.7l-2.7,9h-3.9V41.3h3.8v7.8c0,3.8-0.1,5.2-0.1,6.7c0.4-1.5,0.7-3,1.5-5.5l2.7-9h3.9
		v21.9h-3.8v-7.8C104.7,51.7,104.8,49.9,104.9,48.5z"/>
	<path d="M121.4,41.3v3.4h-5.8v5.4h4.8v3.5h-4.8v6.1h6v3.5h-9.8V41.3H121.4z"/>
	<path d="M26.9,70.5c14.5,0,16.6,6.5,16.6,10.9v0.9c0,4.3-2.1,11-16.6,11h-1.4C11,93.3,9,86.6,9,82.3v-0.9C9,77,11,70.5,25.5,70.5
		H26.9z M26.2,77c-5.7,0-7,2.5-7,4.6v0.4c0,2.2,1.5,4.8,7,4.8c5.5,0,7-2.6,7-4.7v-0.4C33.2,79.5,31.8,77,26.2,77z"/>
	<path d="M65.9,92.9H52.1L41.4,70.9h11.3l6.6,14.3l6.2-14.3h10.3L65.9,92.9z"/>
	<path d="M101.9,70.9v5.8H86.2v2.2h15.4v5.7H86.2V87h15.8v5.9H76.5V70.9H101.9z"/>
	<path d="M113.8,92.9h-9.9V70.9h22.3c5.5,0,8.9,1.6,8.9,5.6v0.3c0,3.3-2.9,4.6-4.8,5c3.1,0.6,4.9,2.5,4.9,5.4v3.3
		c0,1.3,0.2,1.8,0.4,2.2v0.2h-10.2c-0.2-0.2-0.2-0.4-0.2-0.9v-2.6c0-2.4-1.1-3.7-4.3-3.7h-7V92.9z M113.8,79.8h8.8
		c1.6,0,2.2-0.7,2.2-1.6v0c0-0.9-0.6-1.6-2.2-1.6h-8.8V79.8z"/>
	<path d="M145.2,93.1h-0.6c-3.4,0-5.3-1.6-5.3-4.4V85h3.8v3c0,1.2,0.6,1.8,1.8,1.8c1.1,0,1.7-0.7,1.7-2.1v-0.2
		c0-1.4-0.5-2.2-1.7-3.2l-2.9-2.6c-1.7-1.6-2.7-3-2.7-5.4v-0.6c0-3.3,1.9-4.9,5.3-4.9h0.6c3.2,0,5.1,1.4,5.1,4.2v2.9h-3.8v-2.1
		c0-1.3-0.5-1.9-1.6-1.9c-1.1,0-1.7,0.5-1.7,1.8v0.2c0,1.3,0.4,1.9,1.6,3l2.8,2.6c2,1.8,2.8,3.1,2.8,5.7v0.6
		C150.7,90.8,149.1,93.1,145.2,93.1z"/>
	<path d="M160.4,88.8h-4l-0.6,4h-3.4l3.7-21.9h4.9l3.9,21.9H161L160.4,88.8z M156.9,85.6h2.9l-0.8-4.9c-0.4-2.4-0.6-4-0.7-5.2
		c-0.1,1.2-0.4,2.9-0.7,5.2L156.9,85.6z"/>
	<path d="M170.9,70.9v18.3h5.4v3.6H167V70.9H170.9z"/>
	<path d="M185.8,88.8h-4l-0.6,4h-3.4l3.7-21.9h4.9l3.9,21.9h-3.8L185.8,88.8z M182.4,85.6h2.9l-0.8-4.9c-0.4-2.4-0.6-4-0.7-5.2
		c-0.1,1.2-0.4,2.9-0.7,5.2L182.4,85.6z"/>
	<path d="M192.5,70.9h6.2c3.5,0,4.9,1.4,4.9,5v11.7c0,3.5-1.4,5.2-4.9,5.2h-6.2V70.9z M196.4,89.5h1.4c1.4,0,1.9-0.8,1.9-2.3V76.4
		c0-1.6-0.5-2.3-1.8-2.3h-1.4V89.5z"/>
</g>
</svg>
