<?xml version="1.0" encoding="utf-8"?>
<!-- Generator: Adobe Illustrator 22.1.0, SVG Export Plug-In . SVG Version: 6.00 Build 0)  -->
<svg version="1.1" id="Layer_1" xmlns="http://www.w3.org/2000/svg" xmlns:xlink="http://www.w3.org/1999/xlink" x="0px" y="0px"
	 viewBox="0 0 1117.7 579.8" style="enable-background:new 0 0 1117.7 579.8;" xml:space="preserve">
<style type="text/css">
	.st0{fill:#F7B7DA;}
	.st1{fill:#004420;}
</style>
<rect x="0.1" y="0.2" class="st0" width="1117.5" height="579.4"/>
<g>
	<path class="st1" d="M319.4,405.9c0.1,81.2-45.6,128.2-116.7,128.3l-20.3,0C106.2,534.3,64.3,488,64.2,406.1l-0.2-224
		C64,100.8,98.2,48.8,181.4,48.7l20.3,0c83.8-0.1,117.4,52.6,117.5,133.2L319.4,405.9z M210.7,171.2c0-17.8-5.7-26.6-19.1-26.6
		c-14,0-19,8.9-19,26.7l0.2,241.8c0,14,5.1,23.5,19.7,23.5c13.3,0,18.4-9.5,18.4-23.5L210.7,171.2z"/>
	<path class="st1" d="M441.8,344.9l0.1,182.1l-104.1,0.1l-0.4-472.2l151-0.1c62.2,0,88.9,31.7,88.9,95.1l0.1,97.7
		c0,61.6-31.7,97.1-85.6,97.2L441.8,344.9z M441.7,257.9l12.7,0c15.2,0,18.4-8.9,18.4-22.9l-0.1-74.2c0-14-2.6-23.5-18.4-23.5
		l-12.7,0L441.7,257.9z"/>
	<path class="st1" d="M789.9,54.6l0.1,97.7l-92.7,0.1l0.1,80.6l74.2-0.1l0.1,100.3l-74.2,0.1l0.1,93.9l96.5-0.1l0.1,99.6l-199.9,0.2
		l-0.4-472.2L789.9,54.6z"/>
	<path class="st1" d="M909.9,54.5L964,282.9l-0.2-228.5l89.5-0.1l0.4,472.1l-92,0.1l-62.4-246.2l0.2,246.2l-90.7,0.1l-0.4-472.1
		L909.9,54.5z"/>
</g>
</svg>
