<?xml version="1.0" encoding="utf-8"?>
<!-- Generator: Adobe Illustrator 22.1.0, SVG Export Plug-In . SVG Version: 6.00 Build 0)  -->
<svg version="1.1" id="Layer_1" xmlns="http://www.w3.org/2000/svg" xmlns:xlink="http://www.w3.org/1999/xlink" x="0px" y="0px"
	 viewBox="0 0 887.5 2124.5" style="enable-background:new 0 0 887.5 2124.5;" xml:space="preserve">
<style type="text/css">
	.st0{fill:#FFFFFF;}
	.st1{fill:#66FF83;}
</style>
<rect class="st0" width="887.5" height="1062.5"/>
<rect x="0" y="1062.5" width="887.5" height="1062.5"/>
<g>
	<path d="M247.2,908.4c0,50-27.5,79.6-90.5,79.6H147c-63,0-92.1-29.5-92.1-79.6v-751c0-50,29.1-79.6,92.1-79.6h9.7
		c63,0,90.5,29.5,90.5,79.6V908.4z M159.9,151c0-7.7-3.2-11.6-8.1-11.6c-6.5,0-9.7,3.8-9.7,11.6v762.6c0,7.7,3.2,11.5,9.7,11.5
		c4.9,0,8.1-3.9,8.1-11.5V151z"/>
	<path d="M258.6,80.4h92.1l16.2,810.8L383,80.4h84.1l-45.3,905H305.4L258.6,80.4z"/>
	<path d="M619,80.4v64.2h-53.3v340.5h50.1v66.7h-50.1V920h55v65.4H480v-905H619z"/>
	<path d="M722.4,985.4h-85.7v-905h134.2c33.9,0,53.3,19.3,53.3,50v344.3c0,29.5-17.8,38.5-30.7,42.3c12.9,3.9,32.3,16.7,32.3,41.1
		v409.3c0,6.4,1.6,11.5,3.2,16.7v1.3h-84.1c-3.2-2.6-4.8-7.7-4.8-16.7V567.2c0-6.4-3.2-9-11.3-9h-6.5V985.4z M722.4,492.8h6.5
		c8.1,0,11.3-3.8,11.3-10.3V149.7c0-6.4-3.2-10.3-9.7-10.3h-8.1V492.8z"/>
</g>
<g>
	<path class="st0" d="M121.6,2051.8c-46.5,0-70.4-22-70.4-64.6v-350h70.4v346.4c0,7.3,2.7,11,6.6,11c5.3,0,8-3.7,8-11v-320.8
		c0-19.5-2.7-24.4-12-37.8L79.1,1570c-21.3-28.1-26.6-50-26.6-87.8v-274.4c0-43.9,17.3-68.3,70.4-68.3h14.6
		c53.1,0,67.7,24.4,67.7,63.4v307.4h-67.7v-306.1c0-6.1-2.7-8.5-6.6-8.5c-5.3,0-8,2.4-8,8.5v283c0,19.5,2.7,23.2,12,36.6l45.2,56.1
		c25.2,29.3,26.6,48.8,26.6,87.8v314.7c0,46.3-23.9,69.5-70.4,69.5H121.6z"/>
	<path class="st0" d="M302.3,1834.7H281l-5.3,214.7h-59.8l33.2-907.4h93l33.2,907.4h-69.1L302.3,1834.7z M293,1307.8l-10.6,465.9
		H301L293,1307.8z"/>
	<path class="st0" d="M455,1141.9v845.2h42.5v62.2H384.6v-907.4H455z"/>
	<path class="st0" d="M590.5,1834.7h-21.3l-5.3,214.7h-59.8l33.2-907.4h93l33.2,907.4h-69.1L590.5,1834.7z M581.2,1307.8
		l-10.6,465.9h18.6L581.2,1307.8z"/>
</g>
<path class="st0" d="M672.8,1141.9h99.6c33.2,0,55.8,17.1,55.8,56.1v792.8c0,35.4-17.3,58.5-53.1,58.5H672.8V1141.9z M743.2,1992
	h5.3c6.6,0,9.3-4.9,9.3-13.4v-768.4c0-8.5-2.7-12.2-9.3-12.2h-5.3V1992z"/>
<g>
	
		<rect x="1528.6" y="-1430.1" transform="matrix(0.9738 -0.2272 0.2272 0.9738 315.1418 452.5033)" class="st1" width="1188.6" height="575.2"/>
	<g>
		<g>
			<path d="M1691.9-1287.7c73.7-17.2,108.9,12.5,122.2,69.2l12.7,54.2l-96.9,22.6l-11.4-48.8c-2.9-12.2-7.6-18.8-19.8-15.9
				c-11.6,2.7-13.5,10.9-10.5,23.7l2.7,11.6c4.4,18.9,11.2,28.9,32.8,41.2l62.6,34.2c55.5,31.4,76.7,58.6,88.2,108l5.3,22.6
				c16.5,70.7-7.1,126.3-84.5,144.4l-21.9,5.1c-70.1,16.4-113.3-8.9-128.8-75.3l-16.9-72.5l98.7-23l14.7,62.8
				c3.5,15.2,9.8,22.8,22.6,19.8c12.2-2.8,14.3-13,10.2-30.6l-2.8-12.2c-6-25.6-10.5-36.8-37.1-51.7l-63.4-34.7
				c-46.4-25.2-68.3-58.6-79.1-104.9l-5-21.3c-14.1-60.3,12.5-106.4,83.2-122.9L1691.9-1287.7z"/>
			<path d="M1982-1231.4c-4-17.1-12.1-24.2-24.3-21.3c-14,3.3-16.3,12.8-12.3,29.9l54.2,232.2c3.3,14,10.1,21.4,24.1,18.1
				c12.8-3,15.7-12.7,12.4-26.7L1982-1231.4z M2138.8-1030.2c18.3,78.6-14.6,133.2-83.4,149.3l-19.5,4.5
				c-73.7,17.2-123.7-18-142.1-96.7l-50.2-215.1c-18.2-78,3.1-135.7,82.9-154.3l19.5-4.6c80.5-18.8,124.6,24.3,142.6,101.7
				L2138.8-1030.2z"/>
			<path d="M2245.9-1293c-4-17.1-12.1-24.2-24.3-21.3c-14,3.3-16.3,12.8-12.3,29.9l54.2,232.2c3.3,14,10.1,21.4,24.2,18.1
				c12.8-3,15.7-12.7,12.4-26.7L2245.9-1293z M2402.8-1091.8c18.3,78.6-14.6,133.2-83.4,149.3l-19.5,4.5
				c-73.8,17.2-123.8-18-142.1-96.6l-50.2-215.2c-18.2-78,3-135.7,82.9-154.3l19.5-4.5c80.4-18.8,124.5,24.3,142.6,101.7
				L2402.8-1091.8z"/>
		</g>
		<polygon points="2441.8,-1456.3 2544.7,-1248.9 2493.5,-1468.4 2579.5,-1488.4 2685.3,-1035 2596.9,-1014.4 2482,-1236.9 
			2537.2,-1000.4 2450,-980.1 2344.2,-1433.5 		"/>
	</g>
</g>
</svg>
